Coordinates
version=1
nRows=7
nColumns=33
inDegrees=yes

Units are S.I. units (second, meters, Newtons, ...)
Angles are in degrees.

endheader
time	ground_thorax_rot_x	ground_thorax_rot_y	ground_thorax_rot_z	ground_thorax_tx	ground_thorax_ty	ground_thorax_tz	clav_prot_r	clav_elev_r	scapula_abduction_r	scapula_elevation_r	scapula_upward_rot_r	scapula_winging_r	shoulder_elv_r	plane_of_elev_r	axial_rot_r	elbow_flexion_r	pro_sup_r	wrist_flex_r	wrist_dev_r	clav_prot_l	clav_elev_l	scapula_abduction_l	scapula_elevation_l	scapula_upward_rot_l	scapula_winging_l	shoulder_elv_l	plane_of_elev_l	axial_rot_l	elbow_flexion_l	pro_sup_l	wrist_flex_l	wrist_dev_l
      6.82000000	     40.16502245	     15.10474765	     16.45652394	   -160.96449790	    798.97146760	      3.01299665	     16.49656221	     37.28041100	     40.54547814	     45.00000000	    -43.99806310	   1357.95018361	  -2988.21187705	    142.40751622	    179.99999979	   2170.61576286	     44.15568394	     21.30429076	     12.36167165	     -3.13819258	    -45.00000000	    -45.00000000	     45.00000000	     18.13657618	  -2766.59186827	  -1717.84623403	     13.46225640	    179.99999979	   1086.85159305	    216.53679833	     10.55434489	    -16.28243422
      6.83000000	     40.21504603	     15.28381635	     16.57127648	   -157.72734725	    797.02647251	      3.11105671	     16.47662936	     37.28292255	     40.63894741	     45.00000000	    -43.91626556	   1358.17328859	  -2988.45456341	    142.40747556	    179.99999979	   2170.35895570	     44.14968606	     21.22423527	     12.65657010	     -3.23859445	    -45.00000000	    -45.00000000	     45.00000000	     18.12434807	  -2766.57622519	  -1718.19540384	     13.42780548	    179.99999979	   1086.94103252	    216.98695928	     10.43000234	    -16.09757897
      6.84000000	     40.25210316	     15.50336632	     16.74191501	   -154.44935916	    795.06491044	      3.21728695	     16.53627029	     37.29042149	     40.72292019	     45.00000000	    -43.86383029	   1358.41863651	  -2988.70053493	    142.44113252	    179.99999979	   2170.08503939	     44.17481682	     21.13808681	     12.92973804	     -3.33235819	    -45.00000000	    -45.00000000	     45.00000000	     18.04544698	  -2766.55410374	  -1718.54351392	     13.38335122	    179.99999979	   1087.04105828	    217.43890442	     10.30012244	    -15.91028557
      6.85000000	     40.28235335	     15.74032224	     16.93517958	   -151.13650049	    793.09288147	      3.32678457	     16.43792696	     37.22828896	     40.78130414	     45.00000000	    -43.84599523	   1358.70412483	  -2988.91477838	    142.49325262	    179.99999979	   2169.77588044	     44.25352337	     21.06937852	     13.22615543	     -3.37073334	    -45.00000000	    -45.00000000	     45.00000000	     17.82965598	  -2766.57051834	  -1718.90954081	     13.33471562	    179.99999979	   1087.14010125	    217.88456317	     10.14145045	    -15.69513596
      6.86000000	     40.29613973	     15.95502225	     17.13975210	   -147.79949758	    791.11544330	      3.43543853	     16.52361319	     37.24523016	     40.85699231	     45.00000000	    -43.77465133	   1358.93234548	  -2989.16706725	    142.53332980	    179.99999979	   2169.51177195	     44.35749794	     20.98996707	     13.45255606	     -3.46291337	    -45.00000000	    -45.00000000	     45.00000000	     17.63274161	  -2766.54813396	  -1719.28565212	     13.28106406	    179.99999979	   1087.17486788	    218.32231240	      9.99021874	    -15.51596360
      6.87000000	     40.37572513	     16.10776021	     17.25837057	   -144.44560381	    789.13951325	      3.54019487	     17.04860635	     37.45975592	     41.08572823	     45.00000000	    -43.72702729	   1359.07167410	  -2989.50867884	    142.60153444	    179.99999979	   2169.21615661	     44.48930308	     20.85966165	     13.56017992	     -3.72637624	    -45.00000000	    -45.00000000	     45.00000000	     17.89675096	  -2766.40569409	  -1719.57560420	     13.19079138	    179.99999979	   1087.35128554	    218.81319260	      9.90148061	    -15.36694493
      6.88000000	     40.58637077	     15.88398441	     17.08040946	   -141.08717125	    787.17280529	      3.64020817	     18.46718023	     38.09265720	     41.69215281	     45.00000000	    -43.07495437	   1359.47277240	  -2989.93161065	    143.27673833	    179.99999979	   2168.91133945	     44.66468664	     20.77553465	     13.64926900	     -4.78691795	    -45.00000000	    -45.00000000	     45.00000000	     19.99381043	  -2765.85356517	  -1719.44134503	     12.98776549	    179.99999979	   1087.89114229	    219.57154958	      9.75401172	    -15.08104806
